<?xml version="1.0" standalone="no"?>
<!DOCTYPE svg PUBLIC "-//W3C//DTD SVG 20010904//EN"
 "http://www.w3.org/TR/2001/REC-SVG-20010904/DTD/svg10.dtd">
<svg version="1.0" xmlns="http://www.w3.org/2000/svg"
 width="900.000000pt" height="651.000000pt" viewBox="0 0 900.000000 651.000000"
 preserveAspectRatio="xMidYMid meet">

As SVG is XML, you can use XML style comments:

<!-- drop shadow begin-->

 <defs>
    <filter id="f" x="0" y="0" width="400%" height="400%">
      <feOffset result="offOut" in="SourceAlpha" dx="20" dy="20" />
      <feGaussianBlur result="blurOut" in="offOut" stdDeviation="10" />
      <feBlend in="SourceGraphic" in2="blurOut" mode="normal" />
    </filter>
  </defs>
<!-- drop shadow end-->

<metadata>
Created by potrace 1.10, written by Peter Selinger 2001-2011
</metadata>
<g transform="translate(0.000000,651.000000) scale(0.100000,-0.100000)"
fill="#AAA0FF" stroke="none" filter="url(#f)">
<path d="M4364 6224 c-66 -70 -126 -136 -133 -148 -8 -12 -47 -59 -85 -106
-39 -46 -106 -132 -148 -190 -42 -58 -88 -121 -103 -140 -76 -100 -247 -386
-355 -592 -50 -94 -90 -172 -90 -173 0 -2 -16 -38 -36 -82 -56 -122 -61 -134
-82 -198 -11 -33 -28 -78 -38 -100 -19 -43 -36 -97 -59 -185 -13 -52 -20 -75
-61 -210 -9 -30 -19 -80 -23 -110 -4 -30 -13 -82 -19 -115 -41 -219 -50 -336
-41 -571 10 -283 48 -570 100 -749 5 -16 18 -64 29 -105 12 -41 28 -100 36
-130 9 -30 25 -77 36 -105 11 -27 30 -77 40 -110 18 -54 32 -90 73 -180 7 -16
21 -48 30 -70 20 -46 17 -39 101 -202 35 -68 75 -141 89 -163 14 -22 25 -43
25 -48 0 -4 15 -30 33 -57 17 -28 41 -67 52 -87 10 -20 36 -61 57 -90 21 -29
47 -71 59 -93 12 -22 26 -43 30 -46 8 -5 35 -42 143 -200 25 -37 53 -72 61
-79 9 -7 46 -52 82 -99 37 -47 70 -88 73 -91 3 -3 46 -50 95 -105 97 -107 147
-155 163 -155 10 0 239 242 298 316 18 21 52 63 75 93 74 91 169 220 283 386
34 49 101 155 156 245 36 60 111 194 134 240 15 30 40 80 56 110 61 118 119
250 155 350 21 58 41 110 45 115 8 12 30 82 60 190 12 44 25 85 29 90 20 32
81 362 116 625 17 133 19 223 6 335 -6 44 -17 143 -26 220 -9 77 -21 167 -27
200 -29 169 -38 215 -52 270 -26 105 -94 328 -121 395 -14 36 -35 92 -46 125
-25 73 -73 178 -158 345 -127 250 -213 398 -336 579 -28 42 -67 99 -85 126
-40 59 -124 174 -144 195 -7 8 -44 53 -81 100 -140 176 -311 360 -335 360 -10
0 -71 -57 -136 -126z"/>
<path d="M1559 5117 c-55 -25 -68 -52 -138 -292 -38 -130 -49 -184 -77 -380
-26 -182 -33 -288 -33 -495 0 -282 31 -582 66 -642 21 -36 59 -48 208 -68 143
-19 543 -124 640 -169 11 -5 80 -30 153 -55 l133 -46 38 20 c71 36 73 44 82
329 10 310 23 511 38 611 26 180 33 219 46 285 7 39 21 99 30 135 8 36 20 86
25 111 4 26 13 64 19 85 16 59 13 90 -11 118 -37 40 -343 204 -481 256 -28 12
-61 24 -72 29 -164 71 -252 97 -550 165 -80 18 -81 18 -116 3z"/>
<path d="M7325 5114 c-90 -19 -171 -39 -260 -64 -44 -12 -93 -26 -110 -30
-129 -35 -542 -229 -698 -327 -63 -39 -65 -69 -22 -243 43 -173 85 -394 95
-503 4 -45 13 -125 18 -177 16 -144 32 -430 32 -573 0 -148 10 -176 72 -208
l37 -19 93 31 c51 16 102 34 113 39 61 28 331 114 440 140 22 5 78 19 125 30
47 12 114 25 150 30 153 19 188 30 209 64 10 17 26 76 35 131 9 55 21 129 27
165 16 100 6 692 -14 805 -9 50 -23 131 -31 180 -34 197 -105 437 -148 497
-15 22 -77 52 -98 47 -3 -1 -32 -7 -65 -15z"/>
<path d="M935 2830 c-156 -12 -318 -31 -360 -42 -22 -6 -65 -14 -95 -19 -88
-13 -179 -35 -264 -63 -43 -14 -84 -26 -92 -26 -7 0 -15 -4 -18 -9 -10 -15
153 -476 216 -611 11 -25 32 -70 45 -100 26 -58 105 -214 133 -265 113 -199
164 -278 294 -453 132 -179 253 -317 371 -421 33 -30 77 -69 98 -88 173 -157
487 -350 722 -445 28 -11 65 -26 83 -34 18 -8 37 -14 43 -14 6 0 25 -6 42 -14
46 -20 116 -44 162 -55 22 -6 67 -17 100 -26 81 -22 186 -44 265 -55 111 -16
449 -40 570 -40 154 0 572 38 655 59 22 6 55 11 73 11 48 0 51 24 8 68 -97
100 -173 183 -214 237 -26 33 -51 65 -58 70 -6 6 -26 33 -44 60 -19 28 -50 70
-69 95 -35 43 -74 101 -137 200 -16 25 -31 50 -34 55 -3 6 -22 36 -43 67 -20
31 -37 61 -37 67 0 5 -7 17 -15 25 -9 9 -35 53 -59 98 -24 46 -63 119 -87 163
-128 230 -269 557 -360 834 -41 124 -79 173 -171 221 -35 18 -70 38 -78 44
-23 19 -235 128 -335 173 -134 60 -443 156 -545 169 -19 3 -71 11 -115 19
-162 29 -465 59 -540 53 -11 -1 -60 -4 -110 -8z"/>
<path d="M7780 2830 c-115 -8 -241 -23 -365 -45 -44 -8 -93 -16 -110 -18 -104
-15 -377 -97 -519 -156 -155 -64 -499 -255 -544 -302 -16 -17 -43 -76 -69
-151 -24 -68 -55 -157 -69 -198 -15 -41 -40 -104 -56 -140 -16 -36 -33 -74
-37 -85 -16 -40 -84 -182 -126 -265 -54 -108 -128 -249 -143 -275 -37 -65
-166 -282 -181 -304 -10 -14 -48 -71 -84 -126 -73 -112 -159 -230 -211 -290
-19 -22 -53 -62 -76 -90 -23 -27 -66 -77 -96 -110 -131 -148 -127 -142 -91
-149 146 -28 143 -28 387 -55 301 -34 795 -15 1055 42 262 57 497 138 720 249
147 73 154 76 223 121 24 15 45 27 47 27 7 0 175 120 227 163 381 310 635 634
909 1157 36 69 139 291 139 299 0 8 23 65 56 138 8 17 14 37 14 45 0 8 3 17 6
21 6 6 48 120 90 246 20 60 22 77 12 87 -27 25 -227 81 -372 105 -33 5 -76 13
-95 18 -20 5 -70 12 -111 16 -41 3 -100 10 -130 15 -79 13 -278 18 -400 10z"/>
</g>
</svg>
